<svg id="Layer_1" data-name="Layer 1" xmlns="http://www.w3.org/2000/svg" viewBox="0 0 48 48"><title>13. Time</title><path d="M46,35.14a10.93,10.93,0,0,0-3.22-7.78l-4.14-4.14A8.94,8.94,0,0,1,36,16.86V12a12,12,0,0,0-24,0v4.86a8.94,8.94,0,0,1-2.64,6.36L5.22,27.36A10.93,10.93,0,0,0,2,35.14V40H17v1a7,7,0,0,0,14,0V40H46V35.14ZM29,41a5,5,0,0,1-10,0V40H29v1Zm15-3H4V35.14a8.94,8.94,0,0,1,2.64-6.36l4.14-4.14A10.93,10.93,0,0,0,14,16.86V12a10,10,0,0,1,20,0v4.86a10.93,10.93,0,0,0,3.22,7.78l4.14,4.14A8.94,8.94,0,0,1,44,35.14V38Z"/></svg>