<svg width="18" height="18" viewBox="0 0 18 18" fill="none" xmlns="http://www.w3.org/2000/svg">
<path d="M11.1046 8.98554L11.088 9.00212L11.1046 9.01869L17.0458 14.9562C17.3232 15.2336 17.4791 15.6098 17.4791 16.0021C17.4791 16.3944 17.3232 16.7706 17.0458 17.048C16.7684 17.3254 16.3922 17.4813 15.9999 17.4813C15.6076 17.4813 15.2314 17.3254 14.954 17.048L9.01649 11.1105L8.99992 11.094L8.98334 11.1105L3.04584 17.048C2.76845 17.3254 2.39222 17.4813 1.99992 17.4813C1.60762 17.4813 1.23139 17.3254 0.953989 17.048C0.676592 16.7706 0.520752 16.3944 0.520752 16.0021C0.520752 15.6098 0.676592 15.2336 0.953989 14.9562L6.89149 9.01869L6.90806 9.00211L6.89149 8.98554L0.953989 3.04804C0.676592 2.77064 0.520752 2.39441 0.520752 2.00211C0.520752 1.60982 0.676592 1.23358 0.953989 0.956187C1.23139 0.678789 1.60762 0.522949 1.99992 0.522949C2.39222 0.522949 2.76845 0.678789 3.04584 0.956187L8.98334 6.89369L8.99992 6.91026L9.01649 6.89369L14.954 0.956201C15.2314 0.679298 15.6074 0.523929 15.9993 0.524275C16.3913 0.524621 16.767 0.680654 17.044 0.958047C17.3209 1.23544 17.4762 1.61147 17.4759 2.00342C17.4755 2.39537 17.3195 2.77112 17.0421 3.04803L17.0421 3.04804L11.1046 8.98554Z" fill="#666666" stroke="#808289" stroke-width="0.046875"/>
</svg>
